<svg xmlns="http://www.w3.org/2000/svg" viewBox="0 8.859999656677246 62.91999816894531 37.0099983215332" data-asc="0.9052734375" width="62.91999816894531" height="37.0099983215332"><defs/><g fill="#000000"><g transform="translate(0, 0)"><path d="M0 45.26L0 9.47L15.87 9.47Q20.65 9.47 23.14 10.44Q25.63 11.40 27.12 13.84Q28.61 16.28 28.61 19.24Q28.61 23.05 26.15 25.66Q23.68 28.27 18.53 28.98Q20.41 29.88 21.39 30.76Q23.46 32.67 25.32 35.52L31.54 45.26L25.59 45.26L20.85 37.82Q18.77 34.59 17.43 32.89Q16.09 31.18 15.03 30.49Q13.96 29.81 12.87 29.54Q12.06 29.37 10.23 29.37L4.74 29.37L4.74 45.26L0 45.26M4.74 25.27L14.92 25.27Q18.16 25.27 20.00 24.60Q21.83 23.93 22.78 22.45Q23.73 20.97 23.73 19.24Q23.73 16.70 21.89 15.06Q20.04 13.43 16.06 13.43L4.74 13.43L4.74 25.27ZM34.42 33.76L38.89 33.37Q39.21 36.06 40.37 37.78Q41.53 39.50 43.97 40.56Q46.41 41.63 49.46 41.63Q52.17 41.63 54.25 40.82Q56.32 40.01 57.34 38.61Q58.35 37.21 58.35 35.55Q58.35 33.86 57.37 32.60Q56.40 31.35 54.15 30.49Q52.71 29.93 47.78 28.75Q42.85 27.56 40.87 26.51Q38.31 25.17 37.05 23.18Q35.79 21.19 35.79 18.73Q35.79 16.02 37.33 13.66Q38.87 11.30 41.82 10.08Q44.78 8.86 48.39 8.86Q52.37 8.86 55.41 10.14Q58.45 11.43 60.08 13.92Q61.72 16.41 61.84 19.56L57.30 19.90Q56.93 16.50 54.82 14.77Q52.71 13.04 48.58 13.04Q44.29 13.04 42.32 14.61Q40.36 16.19 40.36 18.41Q40.36 20.34 41.75 21.58Q43.12 22.83 48.89 24.13Q54.66 25.44 56.81 26.42Q59.94 27.86 61.43 30.07Q62.92 32.28 62.92 35.16Q62.92 38.01 61.28 40.54Q59.64 43.07 56.58 44.47Q53.52 45.87 49.68 45.87Q44.82 45.87 41.54 44.46Q38.26 43.04 36.39 40.20Q34.52 37.35 34.42 33.76Z"/></g></g></svg>